<mxfile host="app.diagrams.net" modified="2023-05-02T17:11:52.700Z" agent="Mozilla/5.0 (X11; Linux x86_64) AppleWebKit/537.36 (KHTML, like Gecko) Chrome/112.0.0.0 Safari/537.36" etag="Wx-_CR7JlA5jKmJQ_O-Q" version="21.2.4" type="device">
  <diagram name="Page-1" id="2YBvvXClWsGukQMizWep">
    <mxGraphModel dx="1616" dy="881" grid="1" gridSize="10" guides="1" tooltips="1" connect="1" arrows="1" fold="1" page="1" pageScale="1" pageWidth="850" pageHeight="1100" math="0" shadow="0">
      <root>
        <mxCell id="0" />
        <mxCell id="1" parent="0" />
        <mxCell id="aM9ryv3xv72pqoxQDRHE-1" value="Client" style="shape=umlLifeline;perimeter=lifelinePerimeter;whiteSpace=wrap;html=1;container=0;dropTarget=0;collapsible=0;recursiveResize=0;outlineConnect=0;portConstraint=eastwest;newEdgeStyle={&quot;edgeStyle&quot;:&quot;elbowEdgeStyle&quot;,&quot;elbow&quot;:&quot;vertical&quot;,&quot;curved&quot;:0,&quot;rounded&quot;:0};" parent="1" vertex="1">
          <mxGeometry x="200" y="45" width="100" height="595" as="geometry" />
        </mxCell>
        <mxCell id="aM9ryv3xv72pqoxQDRHE-7" value="NotifyServer() : ViewMessage" style="html=1;verticalAlign=bottom;endArrow=block;edgeStyle=elbowEdgeStyle;elbow=vertical;curved=0;rounded=0;" parent="1" source="aM9ryv3xv72pqoxQDRHE-2" edge="1">
          <mxGeometry relative="1" as="geometry">
            <mxPoint x="360" y="240" as="sourcePoint" />
            <Array as="points">
              <mxPoint x="345" y="230" />
            </Array>
            <mxPoint x="550" y="230" as="targetPoint" />
          </mxGeometry>
        </mxCell>
        <mxCell id="8OXiDW2KUwfAdFJW7s4y-1" value="LocalServer" style="shape=umlLifeline;perimeter=lifelinePerimeter;whiteSpace=wrap;html=1;container=1;collapsible=0;recursiveResize=0;outlineConnect=0;rounded=1;shadow=0;comic=0;labelBackgroundColor=none;strokeWidth=1;fontFamily=Verdana;fontSize=12;align=center;" parent="1" vertex="1">
          <mxGeometry x="500" y="45" width="110" height="595" as="geometry" />
        </mxCell>
        <mxCell id="8OXiDW2KUwfAdFJW7s4y-2" value="" style="html=1;points=[];perimeter=orthogonalPerimeter;rounded=0;shadow=0;comic=0;labelBackgroundColor=none;strokeWidth=1;fontFamily=Verdana;fontSize=12;align=center;" parent="8OXiDW2KUwfAdFJW7s4y-1" vertex="1">
          <mxGeometry x="50" y="120" width="10" height="220" as="geometry" />
        </mxCell>
        <mxCell id="8OXiDW2KUwfAdFJW7s4y-3" value="GameController" style="shape=umlLifeline;perimeter=lifelinePerimeter;whiteSpace=wrap;html=1;container=1;collapsible=0;recursiveResize=0;outlineConnect=0;rounded=1;shadow=0;comic=0;labelBackgroundColor=none;strokeWidth=1;fontFamily=Verdana;fontSize=12;align=center;" parent="1" vertex="1">
          <mxGeometry x="920" y="45" width="100" height="595" as="geometry" />
        </mxCell>
        <mxCell id="8OXiDW2KUwfAdFJW7s4y-4" value="" style="html=1;points=[];perimeter=orthogonalPerimeter;rounded=0;shadow=0;comic=0;labelBackgroundColor=none;strokeWidth=1;fontFamily=Verdana;fontSize=12;align=center;" parent="8OXiDW2KUwfAdFJW7s4y-3" vertex="1">
          <mxGeometry x="45" y="300" width="10" height="70" as="geometry" />
        </mxCell>
        <mxCell id="8OXiDW2KUwfAdFJW7s4y-6" value="OnMessage :&lt;br&gt;ViewMessage&amp;lt;?&amp;gt;" style="html=1;verticalAlign=bottom;endArrow=block;labelBackgroundColor=none;fontFamily=Verdana;fontSize=12;elbow=vertical;rounded=0;" parent="1" target="8OXiDW2KUwfAdFJW7s4y-4" edge="1">
          <mxGeometry x="-0.5062" relative="1" as="geometry">
            <mxPoint x="560" y="345" as="sourcePoint" />
            <mxPoint x="750" y="195" as="targetPoint" />
            <mxPoint as="offset" />
            <Array as="points">
              <mxPoint x="620" y="345" />
              <mxPoint x="650" y="345" />
              <mxPoint x="670" y="345" />
            </Array>
          </mxGeometry>
        </mxCell>
        <mxCell id="8OXiDW2KUwfAdFJW7s4y-7" value="Alt" style="shape=umlFrame;whiteSpace=wrap;html=1;pointerEvents=0;" parent="1" vertex="1">
          <mxGeometry x="460" y="125" width="280" height="410" as="geometry" />
        </mxCell>
        <mxCell id="8OXiDW2KUwfAdFJW7s4y-8" value="GameModel" style="shape=umlLifeline;perimeter=lifelinePerimeter;whiteSpace=wrap;html=1;container=1;collapsible=0;recursiveResize=0;outlineConnect=0;rounded=1;shadow=0;comic=0;labelBackgroundColor=none;strokeWidth=1;fontFamily=Verdana;fontSize=12;align=center;size=40;" parent="1" vertex="1">
          <mxGeometry x="1100" y="45" width="100" height="600" as="geometry" />
        </mxCell>
        <mxCell id="8OXiDW2KUwfAdFJW7s4y-9" value="" style="html=1;points=[];perimeter=orthogonalPerimeter;rounded=0;shadow=0;comic=0;labelBackgroundColor=none;strokeWidth=1;fontFamily=Verdana;fontSize=12;align=center;" parent="8OXiDW2KUwfAdFJW7s4y-8" vertex="1">
          <mxGeometry x="45" y="320" width="10" height="100" as="geometry" />
        </mxCell>
        <mxCell id="8OXiDW2KUwfAdFJW7s4y-11" value="Else&lt;br&gt;" style="html=1;whiteSpace=wrap;dashed=1;" parent="1" vertex="1">
          <mxGeometry x="525" y="320" width="60" height="20" as="geometry" />
        </mxCell>
        <mxCell id="8OXiDW2KUwfAdFJW7s4y-12" value="[Modifying state methods]" style="html=1;verticalAlign=bottom;endArrow=block;labelBackgroundColor=none;fontFamily=Verdana;fontSize=12;elbow=vertical;rounded=0;entryX=0.033;entryY=-0.001;entryDx=0;entryDy=0;entryPerimeter=0;exitX=0.862;exitY=0.298;exitDx=0;exitDy=0;exitPerimeter=0;" parent="1" source="8OXiDW2KUwfAdFJW7s4y-4" target="8OXiDW2KUwfAdFJW7s4y-9" edge="1">
          <mxGeometry x="0.0018" relative="1" as="geometry">
            <mxPoint x="980" y="365" as="sourcePoint" />
            <mxPoint x="1215" y="304.5799999999999" as="targetPoint" />
            <mxPoint as="offset" />
            <Array as="points" />
          </mxGeometry>
        </mxCell>
        <mxCell id="8OXiDW2KUwfAdFJW7s4y-13" value="LobbyController" style="shape=umlLifeline;perimeter=lifelinePerimeter;whiteSpace=wrap;html=1;container=1;collapsible=0;recursiveResize=0;outlineConnect=0;rounded=1;shadow=0;comic=0;labelBackgroundColor=none;strokeWidth=1;fontFamily=Verdana;fontSize=12;align=center;" parent="1" vertex="1">
          <mxGeometry x="770" y="45" width="110" height="595" as="geometry" />
        </mxCell>
        <mxCell id="8OXiDW2KUwfAdFJW7s4y-14" value="" style="html=1;points=[];perimeter=orthogonalPerimeter;rounded=0;shadow=0;comic=0;labelBackgroundColor=none;strokeWidth=1;fontFamily=Verdana;fontSize=12;align=center;" parent="8OXiDW2KUwfAdFJW7s4y-13" vertex="1">
          <mxGeometry x="50" y="210" width="10" height="60" as="geometry" />
        </mxCell>
        <mxCell id="8OXiDW2KUwfAdFJW7s4y-15" value="OnMessage :&lt;br&gt;ViewMessage&amp;lt;?&amp;gt;" style="html=1;verticalAlign=bottom;endArrow=block;edgeStyle=elbowEdgeStyle;elbow=vertical;curved=0;rounded=0;" parent="1" edge="1">
          <mxGeometry x="-0.0768" width="80" relative="1" as="geometry">
            <mxPoint x="560" y="265" as="sourcePoint" />
            <mxPoint x="820" y="265" as="targetPoint" />
            <mxPoint as="offset" />
          </mxGeometry>
        </mxCell>
        <mxCell id="8OXiDW2KUwfAdFJW7s4y-17" value="ViewMessage&amp;lt;?&amp;gt; is of type:&lt;br&gt;RequestLobby,&lt;br&gt;JoinLobbyMessage,&lt;br&gt;CreateLobbyMessage,&lt;br&gt;RecoverLobbyMessage" style="html=1;whiteSpace=wrap;dashed=1;" parent="1" vertex="1">
          <mxGeometry x="570" y="130" width="140" height="100" as="geometry" />
        </mxCell>
        <mxCell id="aM9ryv3xv72pqoxQDRHE-2" value="" style="html=1;points=[];perimeter=orthogonalPerimeter;outlineConnect=0;targetShapes=umlLifeline;portConstraint=eastwest;newEdgeStyle={&quot;edgeStyle&quot;:&quot;elbowEdgeStyle&quot;,&quot;elbow&quot;:&quot;vertical&quot;,&quot;curved&quot;:0,&quot;rounded&quot;:0};" parent="1" vertex="1">
          <mxGeometry x="245" y="190" width="10" height="380" as="geometry" />
        </mxCell>
        <mxCell id="8OXiDW2KUwfAdFJW7s4y-19" value="NotifyChange():&lt;br&gt;ModelMessage&amp;lt;?&amp;gt;" style="html=1;verticalAlign=bottom;endArrow=block;edgeStyle=elbowEdgeStyle;elbow=vertical;curved=0;rounded=0;exitX=-0.083;exitY=0.461;exitDx=0;exitDy=0;exitPerimeter=0;entryX=1.16;entryY=0.153;entryDx=0;entryDy=0;entryPerimeter=0;" parent="1" source="8OXiDW2KUwfAdFJW7s4y-14" target="8OXiDW2KUwfAdFJW7s4y-20" edge="1">
          <mxGeometry x="0.5214" y="-3" width="80" relative="1" as="geometry">
            <mxPoint x="630" y="320" as="sourcePoint" />
            <mxPoint x="710" y="320" as="targetPoint" />
            <mxPoint as="offset" />
            <Array as="points">
              <mxPoint x="500" y="300" />
            </Array>
          </mxGeometry>
        </mxCell>
        <mxCell id="8OXiDW2KUwfAdFJW7s4y-20" value="" style="html=1;points=[];perimeter=orthogonalPerimeter;rounded=0;shadow=0;comic=0;labelBackgroundColor=none;strokeWidth=1;fontFamily=Verdana;fontSize=12;align=center;" parent="1" vertex="1">
          <mxGeometry x="250" y="290" width="10" height="60" as="geometry" />
        </mxCell>
        <mxCell id="8OXiDW2KUwfAdFJW7s4y-21" value="" style="html=1;points=[];perimeter=orthogonalPerimeter;rounded=0;shadow=0;comic=0;labelBackgroundColor=none;strokeWidth=1;fontFamily=Verdana;fontSize=12;align=center;" parent="1" vertex="1">
          <mxGeometry x="250" y="440" width="10" height="50" as="geometry" />
        </mxCell>
        <mxCell id="8OXiDW2KUwfAdFJW7s4y-18" value="NotifyChange():&lt;br&gt;ModelMessage&amp;lt;?&amp;gt;" style="html=1;verticalAlign=bottom;endArrow=block;elbow=vertical;rounded=0;entryX=1.077;entryY=0.02;entryDx=0;entryDy=0;entryPerimeter=0;exitX=-0.058;exitY=0.745;exitDx=0;exitDy=0;exitPerimeter=0;" parent="1" target="8OXiDW2KUwfAdFJW7s4y-21" edge="1" source="8OXiDW2KUwfAdFJW7s4y-9">
          <mxGeometry x="-0.4099" width="80" relative="1" as="geometry">
            <mxPoint x="1140" y="440" as="sourcePoint" />
            <mxPoint x="270" y="450" as="targetPoint" />
            <mxPoint as="offset" />
          </mxGeometry>
        </mxCell>
      </root>
    </mxGraphModel>
  </diagram>
</mxfile>
